<?xml version="1.0" encoding="UTF-8" standalone="no"?>
<svg
   xmlns:dc="http://purl.org/dc/elements/1.1/"
   xmlns:cc="http://creativecommons.org/ns#"
   xmlns:rdf="http://www.w3.org/1999/02/22-rdf-syntax-ns#"
   xmlns:svg="http://www.w3.org/2000/svg"
   xmlns="http://www.w3.org/2000/svg"
   xmlns:sodipodi="http://sodipodi.sourceforge.net/DTD/sodipodi-0.dtd"
   xmlns:inkscape="http://www.inkscape.org/namespaces/inkscape"
   width="512"
   height="512"
   viewBox="0 0 135.46666 135.46667"
   version="1.1"
   id="svg8"
   inkscape:version="1.0.1 (3bc2e813f5, 2020-09-07)"
   sodipodi:docname="article_read_2.svg">
  <defs
     id="defs2">
    <filter
       style="color-interpolation-filters:sRGB;"
       inkscape:label="Silhouette"
       id="filter959">
      <feFlood
         flood-opacity="1"
         flood-color="rgb(127,127,127)"
         result="flood"
         id="feFlood953" />
      <feComposite
         in="flood"
         in2="SourceGraphic"
         operator="in"
         result="composite"
         id="feComposite955" />
      <feGaussianBlur
         stdDeviation="0.11"
         id="feGaussianBlur957" />
    </filter>
  </defs>
  <sodipodi:namedview
     id="base"
     pagecolor="#ffffff"
     bordercolor="#666666"
     borderopacity="1.0"
     inkscape:pageopacity="0.0"
     inkscape:pageshadow="2"
     inkscape:zoom="1.139381"
     inkscape:cx="80.803876"
     inkscape:cy="293.19378"
     inkscape:document-units="px"
     inkscape:current-layer="layer1"
     inkscape:document-rotation="0"
     showgrid="false"
     units="px"
     inkscape:window-width="1920"
     inkscape:window-height="1009"
     inkscape:window-x="-8"
     inkscape:window-y="-8"
     inkscape:window-maximized="1" />
  <metadata
     id="metadata5">
    <rdf:RDF>
      <cc:Work
         rdf:about="">
        <dc:format>image/svg+xml</dc:format>
        <dc:type
           rdf:resource="http://purl.org/dc/dcmitype/StillImage" />
        <dc:title></dc:title>
      </cc:Work>
    </rdf:RDF>
  </metadata>
  <g
     inkscape:label="Layer 1"
     inkscape:groupmode="layer"
     id="layer1">
    <g
       id="g850"
       style="fill:#477baf;fill-opacity:1"
       transform="translate(-1.320024)">
      <path
         style="fill:#477baf;fill-opacity:1;stroke-width:1.83173"
         d="m 25.091817,107.34994 c -3.441438,-3.44143 -3.663464,-6.10577 -3.663464,-43.961541 0,-37.855767 0.222026,-40.520104 3.663464,-43.961536 3.441432,-3.441438 6.105769,-3.663464 43.961536,-3.663464 37.855777,0 40.520107,0.222026 43.961547,3.663464 3.44143,3.441432 3.66346,6.105769 3.66346,43.961536 0,37.855771 -0.22203,40.520111 -3.66346,43.961541 -3.44144,3.44144 -6.10577,3.66346 -43.961547,3.66346 -37.855767,0 -40.520104,-0.22202 -43.961536,-3.66346 z M 108.93392,68.425657 109.43227,34.080706 H 69.093776 28.755282 v 33.58173 c 0,18.469955 0.56546,34.147204 1.25659,34.838334 0.691122,0.69112 18.619186,1.03457 39.84014,0.76321 l 38.583558,-0.49337 z m -69.18826,20.60697 c 0,-2.442305 1.22116,-3.663457 3.663465,-3.663457 2.442304,0 3.663464,1.221152 3.663464,3.663457 0,2.442312 -1.22116,3.663464 -3.663464,3.663464 -2.442305,0 -3.663465,-1.221152 -3.663465,-3.663464 z m 14.65385,0 c 0,-3.45993 1.221153,-3.663457 21.980771,-3.663457 20.759612,0 21.980765,0.203527 21.980765,3.663457 0,3.459938 -1.221153,3.663464 -21.980765,3.663464 -20.759618,0 -21.980771,-0.203526 -21.980771,-3.663464 z M 39.74566,78.042242 c 0,-2.442305 1.22116,-3.663458 3.663465,-3.663458 2.442304,0 3.663464,1.221153 3.663464,3.663458 0,2.442311 -1.22116,3.663464 -3.663464,3.663464 -2.442305,0 -3.663465,-1.221153 -3.663465,-3.663464 z m 14.65385,0 c 0,-3.459931 1.221153,-3.663458 21.980771,-3.663458 20.759612,0 21.980765,0.203527 21.980765,3.663458 0,3.459937 -1.221153,3.663464 -21.980765,3.663464 -20.759618,0 -21.980771,-0.203527 -21.980771,-3.663464 z M 39.74566,67.051863 c 0,-2.442312 1.22116,-3.663464 3.663465,-3.663464 2.442304,0 3.663464,1.221152 3.663464,3.663464 0,2.442305 -1.22116,3.663457 -3.663464,3.663457 -2.442305,0 -3.663465,-1.221152 -3.663465,-3.663457 z m 14.65385,0 c 0,-3.459938 1.221153,-3.663464 21.980771,-3.663464 20.759612,0 21.980765,0.203526 21.980765,3.663464 0,3.459931 -1.221153,3.663457 -21.980765,3.663457 -20.759618,0 -21.980771,-0.203526 -21.980771,-3.663457 z M 40.426454,53.361801 c -0.590006,-1.537538 -0.590006,-4.053502 0,-5.591033 0.909007,-2.368842 5.342189,-2.718309 29.045736,-2.289663 l 27.972993,0.505849 v 4.579327 4.579327 L 69.47219,55.651464 C 45.768643,56.08011 41.335461,55.730654 40.426454,53.361801 Z"
         id="path896" />
      <rect
         style="fill:#477baf;fill-opacity:1;stroke-width:0.166551;stroke-linejoin:round"
         id="rect898"
         width="44.577499"
         height="7.2928228"
         x="53.79565"
         y="63.498039" />
      <rect
         style="fill:#477baf;fill-opacity:1;stroke-width:0.166551;stroke-linejoin:round"
         id="rect898-3"
         width="44.577499"
         height="7.2928228"
         x="53.79565"
         y="74.304367" />
      <rect
         style="fill:#477baf;fill-opacity:1;stroke-width:0.166551;stroke-linejoin:round"
         id="rect898-3-6"
         width="44.577499"
         height="7.2928228"
         x="53.79565"
         y="85.280434" />
      <rect
         style="fill:#477baf;fill-opacity:1;stroke-width:0.147129;stroke-linejoin:round"
         id="rect944"
         width="59.031322"
         height="11.409617"
         x="39.537697"
         y="44.43264"
         ry="1.3312391" />
    </g>
    <g
       id="g896">
      <g
         aria-label="Read"
         id="text870"
         style="font-size:4.5861px;line-height:1.25;font-family:sans-serif;-inkscape-font-specification:'sans-serif, Normal';stroke-width:0.264583"
         transform="matrix(1.6151415,0,0,1.6151415,-88.145726,-74.259936)">
        <path
           d="m 73.194305,121.77499 q 0.750342,0 1.072803,-0.27905 0.328662,-0.27906 0.328662,-0.91778 0,-0.63252 -0.328662,-0.90537 -0.322461,-0.27285 -1.072803,-0.27285 h -1.004589 v 2.37505 z m -1.004589,1.64951 v 3.50366 h -2.387452 v -9.25835 h 3.646289 q 1.829346,0 2.678907,0.61392 0.855761,0.61391 0.855761,1.94096 0,0.91778 -0.446484,1.50689 -0.440283,0.58911 -1.333252,0.86816 0.489893,0.11162 0.874365,0.5085 0.390674,0.39067 0.787549,1.19062 l 1.296045,2.6293 h -2.54248 l -1.128614,-2.30063 q -0.341064,-0.69453 -0.694531,-0.94878 -0.347266,-0.25425 -0.930176,-0.25425 z"
           style="font-style:normal;font-variant:normal;font-weight:bold;font-stretch:normal;font-size:12.7px;font-family:sans-serif;-inkscape-font-specification:'sans-serif, Bold';font-variant-ligatures:normal;font-variant-caps:normal;font-variant-numeric:normal;font-variant-east-asian:normal;stroke-width:0.264583"
           id="path872" />
        <path
           d="m 86.415204,123.4369 v 0.63252 h -5.190381 q 0.08061,0.78135 0.564307,1.17202 0.483691,0.39068 1.351855,0.39068 0.700733,0 1.432471,-0.20464 0.737939,-0.21084 1.513086,-0.63252 v 1.71152 q -0.787549,0.29766 -1.575098,0.44649 -0.787549,0.15503 -1.575097,0.15503 -1.885157,0 -2.933155,-0.95498 -1.041797,-0.96119 -1.041797,-2.69131 0,-1.69912 1.023194,-2.67271 1.029394,-0.97358 2.827734,-0.97358 1.637109,0 2.616895,0.98598 0.985986,0.98599 0.985986,2.6355 z m -2.282031,-0.73794 q 0,-0.63252 -0.372071,-1.01699 -0.365869,-0.39067 -0.961181,-0.39067 -0.644922,0 -1.047998,0.36587 -0.403076,0.35966 -0.502295,1.04179 z"
           style="font-style:normal;font-variant:normal;font-weight:bold;font-stretch:normal;font-size:12.7px;font-family:sans-serif;-inkscape-font-specification:'sans-serif, Bold';font-variant-ligatures:normal;font-variant-caps:normal;font-variant-numeric:normal;font-variant-east-asian:normal;stroke-width:0.264583"
           id="path874" />
        <path
           d="m 91.208709,123.80277 q -0.694531,0 -1.047998,0.23565 -0.347265,0.23564 -0.347265,0.69453 0,0.42168 0.279052,0.66352 0.285254,0.23565 0.787549,0.23565 0.626319,0 1.054199,-0.44649 0.427881,-0.45268 0.427881,-1.12861 v -0.25425 z m 3.392041,-0.83716 v 3.96255 h -2.238623 v -1.02939 q -0.446484,0.63252 -1.00459,0.92397 -0.558105,0.28526 -1.358056,0.28526 -1.079004,0 -1.754932,-0.62632 -0.669726,-0.63252 -0.669726,-1.63711 0,-1.22163 0.837158,-1.79214 0.843359,-0.57051 2.641699,-0.57051 h 1.308447 v -0.17363 q 0,-0.5271 -0.415478,-0.76895 -0.415479,-0.24804 -1.296045,-0.24804 -0.713135,0 -1.327051,0.14262 -0.613916,0.14263 -1.141016,0.42788 v -1.69292 q 0.713135,-0.17363 1.432471,-0.26044 0.719336,-0.093 1.438672,-0.093 1.878955,0 2.709912,0.74414 0.837158,0.73794 0.837158,2.40605 z"
           style="font-style:normal;font-variant:normal;font-weight:bold;font-stretch:normal;font-size:12.7px;font-family:sans-serif;-inkscape-font-specification:'sans-serif, Bold';font-variant-ligatures:normal;font-variant-caps:normal;font-variant-numeric:normal;font-variant-east-asian:normal;stroke-width:0.264583"
           id="path876" />
        <path
           d="m 101.39103,120.99984 v -3.7207 h 2.23243 v 9.64902 h -2.23243 v -1.00459 q -0.45888,0.61392 -1.01079,0.89917 -0.551901,0.28526 -1.277438,0.28526 -1.283642,0 -2.108398,-1.017 -0.824756,-1.02319 -0.824756,-2.62929 0,-1.60611 0.824756,-2.6231 0.824756,-1.02319 2.108398,-1.02319 0.719336,0 1.271238,0.29145 0.55811,0.28526 1.01699,0.89297 z m -1.463472,4.49585 q 0.713132,0 1.085202,-0.5209 0.37827,-0.5209 0.37827,-1.51308 0,-0.99219 -0.37827,-1.51309 -0.37207,-0.5209 -1.085202,-0.5209 -0.706934,0 -1.085205,0.5209 -0.37207,0.5209 -0.37207,1.51309 0,0.99218 0.37207,1.51308 0.378271,0.5209 1.085205,0.5209 z"
           style="font-style:normal;font-variant:normal;font-weight:bold;font-stretch:normal;font-size:12.7px;font-family:sans-serif;-inkscape-font-specification:'sans-serif, Bold';font-variant-ligatures:normal;font-variant-caps:normal;font-variant-numeric:normal;font-variant-east-asian:normal;stroke-width:0.264583"
           id="path878" />
      </g>
      <g
         aria-label="(2)"
         id="text878"
         style="font-size:4.5861px;line-height:1.25;font-family:sans-serif;-inkscape-font-specification:'sans-serif, Normal';stroke-width:0.264583"
         transform="matrix(1.2631589,0,0,1.2631589,-47.995093,119.3011)">
        <path
           d="m 109.58452,9.291285 h -2.04638 q -1.0542,-1.7018758 -1.55719,-3.231497 -0.50298,-1.5365114 -0.50298,-3.0454621 0,-1.5089506 0.50298,-3.05235223 0.50988,-1.55029177 1.55719,-3.23838727 h 2.04638 q -0.88194,1.632974 -1.32292,3.19704616 -0.44097,1.55718194 -0.44097,3.07991294 0,1.5227311 0.43408,3.0868032 0.44098,1.5640721 1.32981,3.2039363 z"
           style="font-style:normal;font-variant:normal;font-weight:bold;font-stretch:normal;font-size:14.1111px;font-family:sans-serif;-inkscape-font-specification:'sans-serif, Bold';font-variant-ligatures:normal;font-variant-caps:normal;font-variant-numeric:normal;font-variant-east-asian:normal;stroke-width:0.264583"
           id="path880" />
        <path
           d="m 114.77972,5.4810124 h 4.52685 v 1.9499225 h -7.47585 V 5.4810124 l 3.75515,-3.3141793 q 0.50299,-0.4547523 0.74414,-0.888834 0.24116,-0.43408167 0.24116,-0.90261429 0,-0.72346949 -0.4892,-1.16444138 -0.48232,-0.44097183 -1.28847,-0.44097183 -0.62012,0 -1.35737,0.26871719 -0.73725,0.26182706 -1.57785,0.78548117 V -2.4358109 q 0.89573,-0.296278 1.77078,-0.4478621 0.87505,-0.1584743 1.71566,-0.1584743 1.84657,0 2.86631,0.8130419 1.02664,0.8130419 1.02664,2.26687111 0,0.84060265 -0.43408,1.57096229 -0.43408,0.7234695 -1.8259,1.9430324 z"
           style="font-style:normal;font-variant:normal;font-weight:bold;font-stretch:normal;font-size:14.1111px;font-family:sans-serif;-inkscape-font-specification:'sans-serif, Bold';font-variant-ligatures:normal;font-variant-caps:normal;font-variant-numeric:normal;font-variant-east-asian:normal;stroke-width:0.264583"
           id="path882" />
        <path
           d="m 121.66302,9.291285 q 0.88194,-1.6398642 1.32291,-3.2039363 0.44097,-1.5640721 0.44097,-3.0868032 0,-1.522731 -0.44097,-3.07991294 -0.44097,-1.56407216 -1.32291,-3.19704616 h 2.04638 q 1.04731,1.6880955 1.55029,3.23838727 0.50988,1.54340163 0.50988,3.05235223 0,1.5089507 -0.50299,3.0454621 -0.50298,1.5296212 -1.55718,3.231497 z"
           style="font-style:normal;font-variant:normal;font-weight:bold;font-stretch:normal;font-size:14.1111px;font-family:sans-serif;-inkscape-font-specification:'sans-serif, Bold';font-variant-ligatures:normal;font-variant-caps:normal;font-variant-numeric:normal;font-variant-east-asian:normal;stroke-width:0.264583"
           id="path884" />
      </g>
    </g>
  </g>
</svg>
