<?xml version="1.0" encoding="UTF-8" standalone="no"?>
<svg
   width="512"
   height="512"
   viewBox="0 0 135.46666 135.46667"
   version="1.1"
   id="svg8"
   inkscape:version="1.3.2 (091e20e, 2023-11-25, custom)"
   sodipodi:docname="audio_listen.svg"
   inkscape:export-filename="C:\Users\Andrew\Documents\Inkscape\Longcroft\youtube_icon_W120.png"
   inkscape:export-xdpi="32"
   inkscape:export-ydpi="32"
   xmlns:inkscape="http://www.inkscape.org/namespaces/inkscape"
   xmlns:sodipodi="http://sodipodi.sourceforge.net/DTD/sodipodi-0.dtd"
   xmlns="http://www.w3.org/2000/svg"
   xmlns:svg="http://www.w3.org/2000/svg"
   xmlns:rdf="http://www.w3.org/1999/02/22-rdf-syntax-ns#"
   xmlns:cc="http://creativecommons.org/ns#"
   xmlns:dc="http://purl.org/dc/elements/1.1/">
  <defs
     id="defs2">
    <inkscape:perspective
       sodipodi:type="inkscape:persp3d"
       inkscape:vp_x="0 : 67.733335 : 1"
       inkscape:vp_y="0 : 1000 : 0"
       inkscape:vp_z="135.46666 : 67.733335 : 1"
       inkscape:persp3d-origin="67.73333 : 45.155557 : 1"
       id="perspective849" />
  </defs>
  <sodipodi:namedview
     id="base"
     pagecolor="#ffffff"
     bordercolor="#666666"
     borderopacity="1.0"
     inkscape:pageopacity="0.0"
     inkscape:pageshadow="2"
     inkscape:zoom="1.1310947"
     inkscape:cx="261.69339"
     inkscape:cy="265.67184"
     inkscape:document-units="px"
     inkscape:current-layer="layer1"
     inkscape:document-rotation="0"
     showgrid="false"
     units="px"
     inkscape:window-width="1920"
     inkscape:window-height="1009"
     inkscape:window-x="-8"
     inkscape:window-y="-8"
     inkscape:window-maximized="1"
     inkscape:showpageshadow="2"
     inkscape:pagecheckerboard="0"
     inkscape:deskcolor="#d1d1d1" />
  <metadata
     id="metadata5">
    <rdf:RDF>
      <cc:Work
         rdf:about="">
        <dc:format>image/svg+xml</dc:format>
        <dc:type
           rdf:resource="http://purl.org/dc/dcmitype/StillImage" />
        <dc:title />
      </cc:Work>
    </rdf:RDF>
  </metadata>
  <g
     inkscape:label="Layer 1"
     inkscape:groupmode="layer"
     id="layer1">
    <rect
       style="opacity:0.996;fill:#9f1855;fill-opacity:1;stroke:#871540;stroke-width:0;stop-color:#000000"
       id="rect833"
       width="95.25"
       height="77.574928"
       x="20.108332"
       y="28.945868"
       ry="22.495073" />
    <path
       sodipodi:type="star"
       style="opacity:0.996;fill:#ffffff;fill-opacity:1;stroke:#871540;stroke-width:0;stop-color:#000000"
       id="path845"
       sodipodi:sides="3"
       sodipodi:cx="33.726463"
       sodipodi:cy="56.126785"
       sodipodi:r1="24.16205"
       sodipodi:r2="12.081026"
       sodipodi:arg1="2.2164856"
       sodipodi:arg2="3.2636832"
       inkscape:flatsided="false"
       inkscape:rounded="-3.46945e-18"
       inkscape:randomized="0"
       d="M 19.186971,75.424657 21.735366,54.655468 24.283762,33.88628 40.99621,46.477849 57.708656,59.069419 38.447814,67.247039 Z"
       inkscape:transform-center-x="-7.8412931"
       inkscape:transform-center-y="0.0051535196"
       transform="matrix(1.2892322,-0.13901695,0.15868038,1.1294726,7.5045763,9.0230627)" />
    <g
       aria-label="Watch"
       id="text853"
       style="font-style:normal;font-variant:normal;font-weight:bold;font-stretch:normal;font-size:11.2889px;line-height:1.25;font-family:sans-serif;-inkscape-font-specification:'sans-serif, Bold';font-variant-ligatures:normal;font-variant-caps:normal;font-variant-numeric:normal;font-variant-east-asian:normal;stroke-width:0.264583"
       transform="matrix(1.817031,0,0,1.817031,-20.911627,-90.230674)">
      <path
         style="font-size:11.649px;line-height:3.49471px;font-family:'DejaVu Sans';-inkscape-font-specification:'DejaVu Sans, Bold';text-align:center;text-anchor:middle;stroke-width:0.0385267"
         d="m 29.719469,111.19871 h 2.189876 v 6.83696 h 3.84508 v 1.6552 h -6.034956 z m 7.331817,2.12162 h 2.0363 v 6.37054 h -2.0363 z m 0,-2.47997 h 2.0363 v 1.66089 h -2.0363 z m 8.969958,2.67904 v 1.54714 q -0.654119,-0.27303 -1.262734,-0.40954 -0.608614,-0.13651 -1.148973,-0.13651 -0.580175,0 -0.864574,0.14789 -0.278712,0.1422 -0.278712,0.44366 0,0.24459 0.210456,0.37541 0.216143,0.13082 0.767878,0.19339 l 0.358343,0.0512 q 1.564197,0.19908 2.104556,0.65412 0.540359,0.45504 0.540359,1.42769 0,1.01815 -0.750814,1.53006 -0.750815,0.51192 -2.241068,0.51192 -0.631367,0 -1.308237,-0.10238 -0.671183,-0.0967 -1.382181,-0.29578 v -1.54713 q 0.608614,0.29578 1.245669,0.44366 0.642743,0.14789 1.302549,0.14789 0.597239,0 0.898703,-0.16495 0.301463,-0.16495 0.301463,-0.48917 0,-0.27302 -0.210456,-0.40384 -0.204767,-0.13651 -0.824758,-0.21046 l -0.358343,-0.0455 q -1.359429,-0.17064 -1.905476,-0.63137 -0.546047,-0.46073 -0.546047,-1.39924 0,-1.01247 0.693934,-1.50163 0.693935,-0.48917 2.127308,-0.48917 0.563111,0 1.183102,0.0853 0.61999,0.0853 1.348053,0.26733 z m 4.180672,-2.00786 v 1.80879 h 2.098868 v 1.45612 h -2.098868 v 2.70179 q 0,0.44367 0.176328,0.60293 0.176327,0.15358 0.699622,0.15358 h 1.04659 v 1.45612 h -1.746212 q -1.205854,0 -1.712085,-0.50054 -0.500543,-0.50623 -0.500543,-1.71209 v -2.70179 h -1.012462 v -1.45612 h 1.012462 v -1.80879 z m 9.703708,4.97699 v 0.58018 h -4.760846 q 0.07394,0.71669 0.517607,1.07503 0.443663,0.35834 1.239981,0.35834 0.642743,0 1.313926,-0.1877 0.67687,-0.19339 1.387869,-0.58018 v 1.56989 q -0.722375,0.27302 -1.444749,0.40953 -0.722375,0.1422 -1.444749,0.1422 -1.729149,0 -2.690419,-0.87595 -0.955582,-0.88163 -0.955582,-2.46858 0,-1.55851 0.938518,-2.45153 0.944206,-0.89301 2.593723,-0.89301 1.501629,0 2.400331,0.90439 0.90439,0.90439 0.90439,2.41739 z m -2.093179,-0.67687 q 0,-0.58017 -0.34128,-0.93283 -0.335591,-0.35834 -0.881638,-0.35834 -0.591551,0 -0.96127,0.33559 -0.369719,0.32991 -0.460727,0.95558 z m 10.039299,0 v 3.87921 h -2.047676 v -0.63136 -2.33777 q 0,-0.82476 -0.03982,-1.1376 -0.03413,-0.31283 -0.125136,-0.46072 -0.119447,-0.19908 -0.324215,-0.30715 -0.204768,-0.11376 -0.466415,-0.11376 -0.637055,0 -1.001086,0.49485 -0.364031,0.48917 -0.364031,1.35943 v 3.13408 h -2.0363 v -6.37054 h 2.0363 v 0.93283 q 0.460727,-0.55743 0.978334,-0.81908 0.517607,-0.26733 1.143285,-0.26733 1.10347,0 1.672269,0.67687 0.574487,0.67687 0.574487,1.96804 z"
         id="text1"
         aria-label="Listen" />
    </g>
  </g>
</svg>
