<?xml version="1.0" encoding="UTF-8" standalone="no"?>
<svg
   xmlns:dc="http://purl.org/dc/elements/1.1/"
   xmlns:cc="http://creativecommons.org/ns#"
   xmlns:rdf="http://www.w3.org/1999/02/22-rdf-syntax-ns#"
   xmlns:svg="http://www.w3.org/2000/svg"
   xmlns="http://www.w3.org/2000/svg"
   xmlns:sodipodi="http://sodipodi.sourceforge.net/DTD/sodipodi-0.dtd"
   xmlns:inkscape="http://www.inkscape.org/namespaces/inkscape"
   width="512"
   height="512"
   viewBox="0 0 135.46666 135.46667"
   version="1.1"
   id="svg8"
   inkscape:version="1.0.1 (3bc2e813f5, 2020-09-07)"
   sodipodi:docname="youtube_icon.svg"
   inkscape:export-filename="C:\Users\Andrew\Documents\Inkscape\Longcroft\youtube_icon_W120.png"
   inkscape:export-xdpi="32"
   inkscape:export-ydpi="32">
  <defs
     id="defs2">
    <inkscape:perspective
       sodipodi:type="inkscape:persp3d"
       inkscape:vp_x="0 : 67.733335 : 1"
       inkscape:vp_y="0 : 1000 : 0"
       inkscape:vp_z="135.46666 : 67.733335 : 1"
       inkscape:persp3d-origin="67.73333 : 45.155557 : 1"
       id="perspective849" />
  </defs>
  <sodipodi:namedview
     id="base"
     pagecolor="#ffffff"
     bordercolor="#666666"
     borderopacity="1.0"
     inkscape:pageopacity="0.0"
     inkscape:pageshadow="2"
     inkscape:zoom="1.5996094"
     inkscape:cx="256"
     inkscape:cy="331.01832"
     inkscape:document-units="px"
     inkscape:current-layer="layer1"
     inkscape:document-rotation="0"
     showgrid="false"
     units="px"
     inkscape:window-width="1920"
     inkscape:window-height="1009"
     inkscape:window-x="-8"
     inkscape:window-y="-8"
     inkscape:window-maximized="1" />
  <metadata
     id="metadata5">
    <rdf:RDF>
      <cc:Work
         rdf:about="">
        <dc:format>image/svg+xml</dc:format>
        <dc:type
           rdf:resource="http://purl.org/dc/dcmitype/StillImage" />
        <dc:title></dc:title>
      </cc:Work>
    </rdf:RDF>
  </metadata>
  <g
     inkscape:label="Layer 1"
     inkscape:groupmode="layer"
     id="layer1">
    <rect
       style="opacity:0.996;fill:#e03030;fill-opacity:1;stroke:#871540;stroke-width:0;stop-color:#000000"
       id="rect833"
       width="95.25"
       height="77.574928"
       x="20.108332"
       y="28.945868"
       ry="22.495073" />
    <path
       sodipodi:type="star"
       style="opacity:0.996;fill:#ffffff;fill-opacity:1;stroke:#871540;stroke-width:0;stop-color:#000000"
       id="path845"
       sodipodi:sides="3"
       sodipodi:cx="33.726463"
       sodipodi:cy="56.126785"
       sodipodi:r1="24.16205"
       sodipodi:r2="12.081026"
       sodipodi:arg1="2.2164856"
       sodipodi:arg2="3.2636832"
       inkscape:flatsided="false"
       inkscape:rounded="-3.46945e-18"
       inkscape:randomized="0"
       d="M 19.186971,75.424657 21.735366,54.655468 24.283762,33.88628 40.99621,46.477849 57.708656,59.069419 38.447814,67.247039 Z"
       inkscape:transform-center-x="-7.8412931"
       inkscape:transform-center-y="0.0051535196"
       transform="matrix(1.2892322,-0.13901695,0.15868038,1.1294726,7.5045763,9.0230627)" />
    <g
       aria-label="Watch"
       id="text853"
       style="font-style:normal;font-variant:normal;font-weight:bold;font-stretch:normal;font-size:11.2889px;line-height:1.25;font-family:sans-serif;-inkscape-font-specification:'sans-serif, Bold';font-variant-ligatures:normal;font-variant-caps:normal;font-variant-numeric:normal;font-variant-east-asian:normal;stroke-width:0.264583"
       transform="matrix(1.817031,0,0,1.817031,-18.792717,-90.230674)">
      <path
         d="m 28.332423,111.02733 h 2.033987 l 1.422136,5.98069 1.411113,-5.98069 h 2.045011 l 1.411112,5.98069 1.422137,-5.98069 h 2.01745 l -1.94028,8.22965 h -2.447398 l -1.493795,-6.2563 -1.477258,6.2563 h -2.447399 z"
         id="path878" />
      <path
         d="m 43.760955,116.47885 q -0.617362,0 -0.931555,0.20947 -0.308681,0.20946 -0.308681,0.61736 0,0.37482 0.248047,0.5898 0.25356,0.20946 0.700045,0.20946 0.556728,0 0.937066,-0.39688 0.380339,-0.40238 0.380339,-1.00321 v -0.226 z m 3.015151,-0.74414 v 3.52227 h -1.98989 v -0.91502 q -0.396875,0.56224 -0.892969,0.82131 -0.496095,0.25356 -1.207163,0.25356 -0.959116,0 -1.559941,-0.55672 -0.595313,-0.56224 -0.595313,-1.45521 0,-1.0859 0.744141,-1.59302 0.749654,-0.50712 2.34818,-0.50712 h 1.163065 v -0.15434 q 0,-0.46853 -0.369314,-0.6835 -0.369315,-0.22049 -1.152041,-0.22049 -0.633899,0 -1.179602,0.12678 -0.545704,0.12678 -1.014237,0.38034 v -1.50482 q 0.633898,-0.15434 1.273308,-0.23151 0.639411,-0.0827 1.278821,-0.0827 1.670184,0 2.408813,0.66145 0.744142,0.65595 0.744142,2.13872 z"
         id="path880" />
      <path
         d="m 50.766908,111.3305 v 1.75286 h 2.033986 v 1.41112 h -2.033986 v 2.61827 q 0,0.42995 0.170877,0.58429 0.170877,0.14883 0.677995,0.14883 h 1.014237 v 1.41111 h -1.692232 q -1.168578,0 -1.65916,-0.48507 -0.48507,-0.49058 -0.48507,-1.65916 v -2.61827 h -0.981164 v -1.41112 h 0.981164 v -1.75286 z"
         id="path882" />
      <path
         d="m 58.996562,113.27629 v 1.60955 q -0.402388,-0.27561 -0.810288,-0.4079 -0.402387,-0.13229 -0.837848,-0.13229 -0.826823,0 -1.289845,0.48507 -0.457509,0.47956 -0.457509,1.34496 0,0.86541 0.457509,1.35048 0.463022,0.47956 1.289845,0.47956 0.463022,0 0.876433,-0.1378 0.418924,-0.13781 0.771703,-0.4079 v 1.61506 q -0.463022,0.17088 -0.942579,0.25356 -0.474046,0.0882 -0.953604,0.0882 -1.670184,0 -2.612763,-0.85438 -0.942579,-0.8599 -0.942579,-2.38677 0,-1.52686 0.942579,-2.38125 0.942579,-0.85989 2.612763,-0.85989 0.48507,0 0.953604,0.0882 0.474045,0.0827 0.942579,0.25356 z"
         id="path884" />
      <path
         d="m 66.906508,115.49769 v 3.75929 h -1.984377 v -0.61185 -2.25447 q 0,-0.81029 -0.03858,-1.11346 -0.03307,-0.30317 -0.121268,-0.44648 -0.115755,-0.19293 -0.314193,-0.29766 -0.198438,-0.11024 -0.451997,-0.11024 -0.617362,0 -0.97014,0.47956 -0.352778,0.47404 -0.352778,1.3174 v 3.0372 h -1.973353 v -8.57692 h 1.973353 v 3.3073 q 0.446485,-0.54019 0.948091,-0.79375 0.501607,-0.25907 1.107944,-0.25907 1.069359,0 1.620575,0.65594 0.556728,0.65595 0.556728,1.90721 z"
         id="path886" />
    </g>
  </g>
</svg>
