<?xml version="1.0" encoding="UTF-8" standalone="no"?>
<svg
   width="512"
   height="512"
   viewBox="0 0 135.46666 135.46667"
   version="1.1"
   id="svg8"
   inkscape:version="1.3.2 (091e20e, 2023-11-25, custom)"
   sodipodi:docname="youtube_watch_2.svg"
   inkscape:export-filename="C:\Users\Andrew\Documents\Inkscape\Longcroft\youtube_icon_W120.png"
   inkscape:export-xdpi="32"
   inkscape:export-ydpi="32"
   xmlns:inkscape="http://www.inkscape.org/namespaces/inkscape"
   xmlns:sodipodi="http://sodipodi.sourceforge.net/DTD/sodipodi-0.dtd"
   xmlns="http://www.w3.org/2000/svg"
   xmlns:svg="http://www.w3.org/2000/svg"
   xmlns:rdf="http://www.w3.org/1999/02/22-rdf-syntax-ns#"
   xmlns:cc="http://creativecommons.org/ns#"
   xmlns:dc="http://purl.org/dc/elements/1.1/">
  <defs
     id="defs2">
    <inkscape:perspective
       sodipodi:type="inkscape:persp3d"
       inkscape:vp_x="0 : 67.733335 : 1"
       inkscape:vp_y="0 : 1000 : 0"
       inkscape:vp_z="135.46666 : 67.733335 : 1"
       inkscape:persp3d-origin="67.73333 : 45.155557 : 1"
       id="perspective849" />
  </defs>
  <sodipodi:namedview
     id="base"
     pagecolor="#ffffff"
     bordercolor="#666666"
     borderopacity="1.0"
     inkscape:pageopacity="0.0"
     inkscape:pageshadow="2"
     inkscape:zoom="1.5996094"
     inkscape:cx="256.31257"
     inkscape:cy="331.01831"
     inkscape:document-units="px"
     inkscape:current-layer="layer1"
     inkscape:document-rotation="0"
     showgrid="false"
     units="px"
     inkscape:window-width="1920"
     inkscape:window-height="1009"
     inkscape:window-x="-8"
     inkscape:window-y="-8"
     inkscape:window-maximized="1"
     inkscape:showpageshadow="2"
     inkscape:pagecheckerboard="0"
     inkscape:deskcolor="#d1d1d1" />
  <metadata
     id="metadata5">
    <rdf:RDF>
      <cc:Work
         rdf:about="">
        <dc:format>image/svg+xml</dc:format>
        <dc:type
           rdf:resource="http://purl.org/dc/dcmitype/StillImage" />
      </cc:Work>
    </rdf:RDF>
  </metadata>
  <g
     inkscape:label="Layer 1"
     inkscape:groupmode="layer"
     id="layer1">
    <rect
       style="opacity:0.996;fill:#e03030;fill-opacity:1;stroke:#871540;stroke-width:0;stop-color:#000000"
       id="rect833"
       width="95.25"
       height="77.574928"
       x="20.108332"
       y="28.945868"
       ry="22.495073" />
    <path
       sodipodi:type="star"
       style="opacity:0.996;fill:#ffffff;fill-opacity:1;stroke:#871540;stroke-width:0;stop-color:#000000"
       id="path845"
       sodipodi:sides="3"
       sodipodi:cx="33.726463"
       sodipodi:cy="56.126785"
       sodipodi:r1="24.16205"
       sodipodi:r2="12.081026"
       sodipodi:arg1="2.2164856"
       sodipodi:arg2="3.2636832"
       inkscape:flatsided="false"
       inkscape:rounded="-3.46945e-18"
       inkscape:randomized="0"
       d="M 19.186971,75.424657 21.735366,54.655468 24.283762,33.88628 40.99621,46.477849 57.708656,59.069419 38.447814,67.247039 Z"
       inkscape:transform-center-x="-7.8412931"
       inkscape:transform-center-y="0.0051535196"
       transform="matrix(1.2892322,-0.13901695,0.15868038,1.1294726,7.5045767,9.0230627)" />
    <g
       id="g1"
       transform="matrix(1.2,0,0,1.2,-13.585474,-22.105514)">
      <g
         aria-label="Watch"
         id="text853"
         style="font-style:normal;font-variant:normal;font-weight:bold;font-stretch:normal;font-size:11.2889px;line-height:1.25;font-family:sans-serif;-inkscape-font-specification:'sans-serif, Bold';font-variant-ligatures:normal;font-variant-caps:normal;font-variant-numeric:normal;font-variant-east-asian:normal;stroke-width:0.264583"
         transform="matrix(1.5096075,0,0,1.5096075,-17.032443,-56.535835)">
        <path
           d="m 28.332423,111.02733 h 2.033987 l 1.422136,5.98069 1.411113,-5.98069 h 2.045011 l 1.411112,5.98069 1.422137,-5.98069 h 2.01745 l -1.94028,8.22965 h -2.447398 l -1.493795,-6.2563 -1.477258,6.2563 h -2.447399 z"
           id="path878" />
        <path
           d="m 43.760955,116.47885 q -0.617362,0 -0.931555,0.20947 -0.308681,0.20946 -0.308681,0.61736 0,0.37482 0.248047,0.5898 0.25356,0.20946 0.700045,0.20946 0.556728,0 0.937066,-0.39688 0.380339,-0.40238 0.380339,-1.00321 v -0.226 z m 3.015151,-0.74414 v 3.52227 h -1.98989 v -0.91502 q -0.396875,0.56224 -0.892969,0.82131 -0.496095,0.25356 -1.207163,0.25356 -0.959116,0 -1.559941,-0.55672 -0.595313,-0.56224 -0.595313,-1.45521 0,-1.0859 0.744141,-1.59302 0.749654,-0.50712 2.34818,-0.50712 h 1.163065 v -0.15434 q 0,-0.46853 -0.369314,-0.6835 -0.369315,-0.22049 -1.152041,-0.22049 -0.633899,0 -1.179602,0.12678 -0.545704,0.12678 -1.014237,0.38034 v -1.50482 q 0.633898,-0.15434 1.273308,-0.23151 0.639411,-0.0827 1.278821,-0.0827 1.670184,0 2.408813,0.66145 0.744142,0.65595 0.744142,2.13872 z"
           id="path880" />
        <path
           d="m 50.766908,111.3305 v 1.75286 h 2.033986 v 1.41112 h -2.033986 v 2.61827 q 0,0.42995 0.170877,0.58429 0.170877,0.14883 0.677995,0.14883 h 1.014237 v 1.41111 h -1.692232 q -1.168578,0 -1.65916,-0.48507 -0.48507,-0.49058 -0.48507,-1.65916 v -2.61827 h -0.981164 v -1.41112 h 0.981164 v -1.75286 z"
           id="path882" />
        <path
           d="m 58.996562,113.27629 v 1.60955 q -0.402388,-0.27561 -0.810288,-0.4079 -0.402387,-0.13229 -0.837848,-0.13229 -0.826823,0 -1.289845,0.48507 -0.457509,0.47956 -0.457509,1.34496 0,0.86541 0.457509,1.35048 0.463022,0.47956 1.289845,0.47956 0.463022,0 0.876433,-0.1378 0.418924,-0.13781 0.771703,-0.4079 v 1.61506 q -0.463022,0.17088 -0.942579,0.25356 -0.474046,0.0882 -0.953604,0.0882 -1.670184,0 -2.612763,-0.85438 -0.942579,-0.8599 -0.942579,-2.38677 0,-1.52686 0.942579,-2.38125 0.942579,-0.85989 2.612763,-0.85989 0.48507,0 0.953604,0.0882 0.474045,0.0827 0.942579,0.25356 z"
           id="path884" />
        <path
           d="m 66.906508,115.49769 v 3.75929 h -1.984377 v -0.61185 -2.25447 q 0,-0.81029 -0.03858,-1.11346 -0.03307,-0.30317 -0.121268,-0.44648 -0.115755,-0.19293 -0.314193,-0.29766 -0.198438,-0.11024 -0.451997,-0.11024 -0.617362,0 -0.97014,0.47956 -0.352778,0.47404 -0.352778,1.3174 v 3.0372 h -1.973353 v -8.57692 h 1.973353 v 3.3073 q 0.446485,-0.54019 0.948091,-0.79375 0.501607,-0.25907 1.107944,-0.25907 1.069359,0 1.620575,0.65594 0.556728,0.65595 0.556728,1.90721 z"
           id="path886" />
      </g>
      <g
         aria-label="(2)"
         id="text878"
         style="font-size:4.5861px;line-height:1.25;font-family:sans-serif;-inkscape-font-specification:'sans-serif, Normal';stroke-width:0.264583"
         transform="matrix(1.0526324,0,0,1.0526324,-22.596175,113.97644)">
        <path
           d="m 109.58452,9.291285 h -2.04638 q -1.0542,-1.7018758 -1.55719,-3.231497 -0.50298,-1.5365114 -0.50298,-3.0454621 0,-1.5089506 0.50298,-3.05235223 0.50988,-1.55029177 1.55719,-3.23838727 h 2.04638 q -0.88194,1.632974 -1.32292,3.19704616 -0.44097,1.55718194 -0.44097,3.07991294 0,1.5227311 0.43408,3.0868032 0.44098,1.5640721 1.32981,3.2039363 z"
           style="font-style:normal;font-variant:normal;font-weight:bold;font-stretch:normal;font-size:14.1111px;font-family:sans-serif;-inkscape-font-specification:'sans-serif, Bold';font-variant-ligatures:normal;font-variant-caps:normal;font-variant-numeric:normal;font-variant-east-asian:normal;stroke-width:0.264583"
           id="path880-0" />
        <path
           d="m 114.77972,5.4810124 h 4.52685 v 1.9499225 h -7.47585 V 5.4810124 l 3.75515,-3.3141793 q 0.50299,-0.4547523 0.74414,-0.888834 0.24116,-0.43408167 0.24116,-0.90261429 0,-0.72346949 -0.4892,-1.16444138 -0.48232,-0.44097183 -1.28847,-0.44097183 -0.62012,0 -1.35737,0.26871719 -0.73725,0.26182706 -1.57785,0.78548117 V -2.4358109 q 0.89573,-0.296278 1.77078,-0.4478621 0.87505,-0.1584743 1.71566,-0.1584743 1.84657,0 2.86631,0.8130419 1.02664,0.8130419 1.02664,2.26687111 0,0.84060265 -0.43408,1.57096229 -0.43408,0.7234695 -1.8259,1.9430324 z"
           style="font-style:normal;font-variant:normal;font-weight:bold;font-stretch:normal;font-size:14.1111px;font-family:sans-serif;-inkscape-font-specification:'sans-serif, Bold';font-variant-ligatures:normal;font-variant-caps:normal;font-variant-numeric:normal;font-variant-east-asian:normal;stroke-width:0.264583"
           id="path882-2" />
        <path
           d="m 121.66302,9.291285 q 0.88194,-1.6398642 1.32291,-3.2039363 0.44097,-1.5640721 0.44097,-3.0868032 0,-1.522731 -0.44097,-3.07991294 -0.44097,-1.56407216 -1.32291,-3.19704616 h 2.04638 q 1.04731,1.6880955 1.55029,3.23838727 0.50988,1.54340163 0.50988,3.05235223 0,1.5089507 -0.50299,3.0454621 -0.50298,1.5296212 -1.55718,3.231497 z"
           style="font-style:normal;font-variant:normal;font-weight:bold;font-stretch:normal;font-size:14.1111px;font-family:sans-serif;-inkscape-font-specification:'sans-serif, Bold';font-variant-ligatures:normal;font-variant-caps:normal;font-variant-numeric:normal;font-variant-east-asian:normal;stroke-width:0.264583"
           id="path884-2" />
      </g>
    </g>
  </g>
</svg>
